# Blender v2.80 (sub 75) OBJ File: ''
# www.blender.org
v 0.000899 0.000653 0.554266
v 0.323933 -0.234042 0.801039
v -0.122486 -0.379095 0.801038
v -0.398392 0.000653 0.801040
v -0.122486 0.380401 0.801038
v 0.323933 0.235348 0.801039
v 0.124285 -0.379095 1.200336
v -0.322134 -0.234042 1.200335
v -0.322134 0.235348 1.200335
v 0.124285 0.380401 1.200336
v 0.400190 0.000653 1.200334
v 0.000899 0.000653 1.447108
v -0.116411 -0.358282 0.671240
v -0.071624 -0.222555 0.620937
v -0.038803 -0.119426 0.516025
v 0.101590 -0.073809 0.516025
v 0.190772 -0.137296 0.620937
v 0.304773 -0.221428 0.671241
v 0.265970 -0.340856 0.748849
v 0.118250 -0.360507 0.765986
v -0.014820 -0.432092 0.748849
v 0.406365 0.147619 0.748850
v 0.380647 0.000653 0.765987
v 0.406365 -0.147619 0.748850
v 0.101590 0.073809 0.516025
v 0.190772 0.138603 0.620937
v 0.304773 0.221428 0.671241
v -0.376721 0.000000 0.671243
v -0.233798 0.000653 0.620938
v -0.125573 0.000000 0.516026
v -0.241986 -0.358282 0.748849
v -0.344095 -0.249998 0.737132
v -0.415525 -0.119427 0.748851
v -0.116411 0.358282 0.671240
v -0.071624 0.223862 0.620937
v -0.038803 0.119426 0.516025
v -0.415525 0.119427 0.748851
v -0.306323 0.223863 0.765987
v -0.241986 0.358282 0.748849
v -0.014820 0.432092 0.748849
v 0.118250 0.361814 0.765986
v 0.265970 0.340856 0.748849
v 0.478313 -0.073809 1.125575
v 0.425472 -0.137296 1.000687
v 0.430349 -0.221429 0.874425
v 0.430349 0.221429 0.874425
v 0.425472 0.138603 1.000687
v 0.478313 0.073809 1.125575
v 0.077608 -0.477711 1.125576
v 0.000899 -0.445768 1.000687
v -0.077608 -0.477711 0.874424
v 0.343579 -0.340858 0.874424
v 0.263299 -0.360509 1.000687
v 0.218003 -0.432094 1.125576
v -0.430349 -0.221429 1.125575
v -0.423673 -0.137296 1.000687
v -0.478313 -0.073809 0.874425
v -0.218003 -0.432094 0.874424
v -0.261501 -0.360509 1.000687
v -0.343579 -0.340858 1.125576
v -0.343579 0.340858 1.125576
v -0.261501 0.361816 1.000687
v -0.218003 0.432094 0.874424
v -0.478313 0.073809 0.874425
v -0.423673 0.138603 1.000687
v -0.430349 0.221429 1.125575
v 0.218003 0.432094 1.125576
v 0.263299 0.361816 1.000687
v 0.343579 0.340858 0.874424
v -0.077608 0.477711 0.874424
v 0.000899 0.447075 1.000687
v 0.077608 0.477711 1.125576
v 0.415525 -0.119427 1.251149
v 0.308122 -0.222556 1.235387
v 0.241986 -0.358282 1.251151
v 0.014820 -0.432092 1.251151
v -0.116451 -0.360507 1.235388
v -0.265970 -0.340856 1.251151
v -0.406365 -0.147619 1.251150
v -0.378848 0.000653 1.235387
v -0.406365 0.147619 1.251150
v -0.265970 0.340856 1.251151
v -0.116451 0.361814 1.235388
v 0.014820 0.432092 1.251151
v 0.241986 0.358282 1.251151
v 0.308122 0.223863 1.235387
v 0.415525 0.119427 1.251149
v 0.038803 -0.119426 1.483975
v 0.073423 -0.222555 1.380437
v 0.116411 -0.358282 1.328760
v 0.376721 0.000000 1.328757
v 0.235596 0.000653 1.380436
v 0.125573 0.000000 1.483974
v -0.101590 -0.073809 1.483975
v -0.188974 -0.137296 1.380437
v -0.304773 -0.221428 1.328759
v -0.101590 0.073809 1.483975
v -0.188974 0.138603 1.380437
v -0.304773 0.221428 1.328759
v 0.038803 0.119426 1.483975
v 0.073423 0.223862 1.380437
v 0.116411 0.358282 1.328760
v 0.180900 0.131431 1.447215
v 0.319097 0.131432 1.361805
v 0.223605 0.262864 1.361806
v -0.069099 0.212660 1.447215
v -0.026395 0.344092 1.361806
v -0.180902 0.293889 1.361806
v -0.223605 0.000000 1.447215
v -0.335408 0.081229 1.361805
v -0.335408 -0.081229 1.361805
v -0.069099 -0.212660 1.447215
v -0.180902 -0.293889 1.361806
v -0.026395 -0.344092 1.361806
v 0.180900 -0.131431 1.447215
v 0.223605 -0.262864 1.361806
v 0.319097 -0.131432 1.361805
v 0.430902 0.212661 1.138198
v 0.404510 0.293891 1.000000
v 0.335410 0.344095 1.138199
v -0.069099 0.475528 1.138198
v -0.154508 0.475528 1.000000
v -0.223608 0.425324 1.138199
v -0.473607 0.081229 1.138198
v -0.500000 -0.000000 1.000000
v -0.473606 -0.081229 1.138198
v -0.223608 -0.425324 1.138198
v -0.154509 -0.475528 1.000000
v -0.069100 -0.475528 1.138198
v 0.335410 -0.344095 1.138198
v 0.404509 -0.293891 0.999999
v 0.430902 -0.212662 1.138197
v 0.154509 0.475528 1.000000
v 0.223608 0.425324 0.861801
v 0.069100 0.475527 0.861801
v -0.404509 0.293892 1.000000
v -0.335409 0.344095 0.861801
v -0.430902 0.212662 0.861802
v -0.404509 -0.293892 1.000000
v -0.430902 -0.212662 0.861802
v -0.335410 -0.344095 0.861801
v 0.154509 -0.475528 1.000000
v 0.069100 -0.475527 0.861801
v 0.223608 -0.425324 0.861801
v 0.500000 0.000000 1.000000
v 0.473607 -0.081229 0.861802
v 0.473607 0.081229 0.861802
v 0.180902 0.293890 0.638194
v 0.069098 0.212661 0.552785
v 0.026395 0.344093 0.638195
v -0.223605 0.262864 0.638194
v -0.180901 0.131431 0.552786
v -0.319097 0.131431 0.638195
v -0.319097 -0.131432 0.638195
v -0.180901 -0.131432 0.552786
v -0.223605 -0.262864 0.638195
v 0.335409 0.081228 0.638195
v 0.335409 -0.081229 0.638195
v 0.223605 -0.000000 0.552786
v 0.026395 -0.344093 0.638194
v 0.069099 -0.212660 0.552785
v 0.180902 -0.293890 0.638195
vn -0.1085 0.3341 -0.9363
vn 0.6604 -0.7317 -0.1686
vn 0.2823 0.2051 -0.9371
vn 0.2842 -0.2065 -0.9363
vn -0.1097 -0.3377 -0.9349
vn 0.4426 -0.7336 -0.5157
vn -0.5665 -0.6421 -0.5165
vn -0.7876 0.3367 -0.5161
vn 0.0668 0.8546 -0.5151
vn 0.8329 0.2030 -0.5148
vn 0.5518 -0.4009 -0.7313
vn -0.2090 -0.6432 -0.7366
vn -0.6763 0.0000 -0.7366
vn -0.2108 0.6487 -0.7313
vn 0.5547 0.4030 -0.7279
vn 0.1021 -0.9810 0.1652
vn -0.9030 -0.3981 0.1612
vn -0.6604 0.7317 0.1686
vn 0.4863 0.8556 0.1772
vn 0.9641 -0.1994 0.1752
vn -0.2787 -0.2025 0.9388
vn 0.6831 -0.0847 0.7254
vn 0.3423 -0.0852 0.9357
vn 0.2334 0.1696 0.9575
vn 0.1306 0.6759 0.7254
vn 0.5140 -0.2097 0.8317
vn 0.4911 0.3568 0.7947
vn -0.0406 0.5537 0.8317
vn 0.0247 0.3518 0.9357
vn 0.7520 0.1696 0.6369
vn 0.5912 0.6747 0.4420
vn 0.7613 0.5531 0.3383
vn 0.8243 0.3537 0.4420
vn 0.3936 0.6628 0.6369
vn 0.1083 0.9786 0.1752
vn 0.1057 -0.3254 0.9396
vn 0.2911 0.6231 0.7259
vn 0.1867 0.3000 0.9355
vn -0.0891 0.2743 0.9575
vn -0.6075 0.3331 0.7211
vn 0.3565 0.4249 0.8321
vn -0.1876 0.5773 0.7947
vn -0.5418 0.1278 0.8308
vn -0.3255 0.1293 0.9367
vn 0.0711 0.7676 0.6369
vn -0.4645 0.7692 0.4387
vn -0.2914 0.8967 0.3332
vn -0.0789 0.8944 0.4403
vn -0.5087 0.5792 0.6369
vn -0.9014 0.4002 0.1652
vn 0.3385 0.0000 0.9410
vn -0.5042 0.4738 0.7220
vn -0.2248 0.2698 0.9363
vn -0.2885 0.0000 0.9575
vn -0.5053 -0.4772 0.7190
vn -0.2912 0.4733 0.8314
vn -0.6071 0.0000 0.7947
vn -0.2882 -0.4766 0.8305
vn -0.2224 -0.2694 0.9370
vn -0.7081 0.3049 0.6369
vn -0.8754 -0.2106 0.4350
vn -0.9457 0.0000 0.3250
vn -0.8754 0.2088 0.4360
vn -0.7081 -0.3049 0.6369
vn -0.6577 -0.7358 0.1612
vn 0.1046 0.3219 0.9410
vn -0.6100 -0.3331 0.7190
vn -0.3250 -0.1282 0.9370
vn -0.0891 -0.2743 0.9575
vn 0.2948 -0.6259 0.7220
vn -0.5424 -0.1268 0.8305
vn -0.1876 -0.5773 0.7947
vn 0.3601 -0.4232 0.8314
vn 0.1871 -0.2972 0.9363
vn -0.5087 -0.5792 0.6369
vn -0.0719 -0.8970 0.4360
vn -0.2922 -0.8994 0.3250
vn -0.4708 -0.7675 0.4350
vn 0.0711 -0.7676 0.6369
vn 0.4918 -0.8542 0.1686
vn -0.2768 0.2011 0.9396
vn 0.1290 -0.6807 0.7211
vn 0.0224 -0.3495 0.9367
vn 0.2334 -0.1696 0.9575
vn 0.6826 0.0843 0.7259
vn -0.0458 -0.5547 0.8308
vn 0.4911 -0.3568 0.7947
vn 0.5143 0.2077 0.8321
vn 0.3430 0.0849 0.9355
vn 0.3936 -0.6628 0.6369
vn 0.8262 -0.3515 0.4403
vn 0.7628 -0.5542 0.3332
vn 0.5881 -0.6795 0.4387
vn 0.7520 -0.1696 0.6369
vn 0.9640 0.1981 0.1772
vn 0.7945 -0.3227 0.5145
vn 0.9179 0.3330 -0.2156
vn 0.9831 0.1333 0.1254
vn 0.8963 0.2743 0.3485
vn 0.5197 0.6228 0.5848
vn 0.9850 0.1325 -0.1102
vn 0.7947 0.5773 0.1876
vn 0.5853 0.4252 0.6904
vn 0.7529 0.3019 0.5848
vn 0.7972 0.5792 -0.1702
vn 0.4306 0.8938 0.1254
vn 0.4304 0.8959 -0.1102
vn 0.6004 0.7701 -0.2156
vn 0.5379 0.7676 0.3485
vn -0.0614 0.8553 0.5145
vn 0.5496 0.6586 0.5140
vn -0.0333 0.9752 -0.2188
vn 0.1781 0.9759 0.1260
vn 0.0160 0.9372 0.3485
vn -0.4359 0.6827 0.5864
vn 0.1795 0.9775 -0.1109
vn -0.3035 0.9342 0.1876
vn -0.2227 0.6853 0.6934
vn -0.0517 0.8090 0.5856
vn -0.3045 0.9372 -0.1702
vn -0.7217 0.6799 0.1298
vn -0.7238 0.6804 -0.1148
vn -0.5454 0.8080 -0.2229
vn -0.5638 0.7488 0.3485
vn -0.8342 0.1958 0.5156
vn -0.4496 0.7299 0.5149
vn -0.9360 0.2683 -0.2279
vn -0.8687 0.4777 0.1308
vn -0.8864 0.3049 0.3485
vn -0.7812 -0.2094 0.5881
vn -0.8698 0.4796 -0.1158
vn -0.9822 -0.0000 0.1876
vn -0.7160 0.0000 0.6981
vn -0.7821 0.2076 0.5876
vn -0.9854 0.0000 -0.1702
vn -0.8665 -0.4811 0.1331
vn -0.8676 -0.4829 -0.1182
vn -0.9355 -0.2679 -0.2305
vn -0.8864 -0.3049 0.3485
vn -0.4419 -0.7340 0.5158
vn -0.8346 -0.1934 0.5158
vn -0.5439 -0.8069 -0.2305
vn -0.7253 -0.6755 0.1331
vn -0.5638 -0.7488 0.3485
vn -0.0442 -0.8079 0.5876
vn -0.7274 -0.6759 -0.1182
vn -0.3035 -0.9342 0.1876
vn -0.2213 -0.6810 0.6981
vn -0.4405 -0.6783 0.5881
vn -0.3045 -0.9372 -0.1702
vn 0.1859 -0.9738 0.1308
vn 0.1873 -0.9755 -0.1158
vn -0.0341 -0.9731 -0.2279
vn 0.0160 -0.9372 0.3485
vn 0.5552 -0.6531 0.5149
vn -0.0716 -0.8539 0.5156
vn 0.5999 -0.7684 -0.2229
vn 0.4236 -0.8965 0.1298
vn 0.5379 -0.7676 0.3485
vn 0.7534 -0.2991 0.5856
vn 0.4234 -0.8987 -0.1148
vn 0.7947 -0.5773 0.1876
vn 0.5830 -0.4236 0.6934
vn 0.5146 -0.6256 0.5864
vn 0.7972 -0.5792 -0.1702
vn 0.9832 -0.1322 0.1260
vn 0.9851 -0.1314 -0.1109
vn 0.9172 -0.3331 -0.2188
vn 0.8963 -0.2744 0.3485
vn 0.7962 0.3192 0.5140
vn 0.2136 0.6575 0.7225
vn 0.7172 0.6854 -0.1256
vn 0.5473 0.8092 0.2136
vn 0.3045 0.9372 0.1702
vn -0.1812 0.9751 -0.1279
vn 0.7179 0.6875 0.1092
vn 0.3035 0.9342 -0.1876
vn -0.1805 0.9772 0.1116
vn 0.0331 0.9758 0.2162
vn 0.5638 0.7488 -0.3485
vn 0.0466 0.8083 -0.5870
vn 0.2218 0.6826 -0.6963
vn 0.4360 0.6826 -0.5865
vn -0.0160 0.9372 -0.3485
vn -0.5609 0.6476 -0.5157
vn -0.5547 0.4030 0.7279
vn -0.4249 0.8960 -0.1289
vn -0.6000 0.7688 0.2212
vn -0.7972 0.5792 0.1702
vn -0.9838 0.1208 -0.1327
vn -0.4267 0.8973 0.1126
vn -0.7947 0.5774 -0.1876
vn -0.9857 0.1222 0.1164
vn -0.9156 0.3331 0.2253
vn -0.5379 0.7676 -0.3485
vn -0.7556 0.2866 -0.5890
vn -0.5769 0.4191 -0.7011
vn -0.5089 0.6286 -0.5881
vn -0.8963 0.2744 -0.3485
vn -0.7858 -0.3403 -0.5165
vn -0.5519 -0.4010 0.7312
vn -0.9838 -0.1198 -0.1333
vn -0.9148 -0.3331 0.2284
vn -0.7972 -0.5792 0.1702
vn -0.4180 -0.8986 -0.1333
vn -0.9857 -0.1211 0.1170
vn -0.7947 -0.5774 -0.1876
vn -0.4198 -0.9000 0.1170
vn -0.5995 -0.7671 0.2284
vn -0.8963 -0.2744 -0.3485
vn -0.8039 -0.4003 -0.4399
vn -0.7544 -0.5481 -0.3611
vn -0.6291 -0.6409 -0.4399
vn -0.5379 -0.7676 -0.3485
vn 0.0768 -0.8531 -0.5161
vn 0.2119 -0.6521 0.7279
vn -0.1891 -0.9730 -0.1327
vn 0.0339 -0.9737 0.2253
vn 0.3045 -0.9372 0.1702
vn 0.7208 -0.6810 -0.1289
vn -0.1884 -0.9752 0.1164
vn 0.3035 -0.9342 -0.1876
vn 0.7215 -0.6831 0.1126
vn 0.5458 -0.8082 0.2212
vn -0.0160 -0.9372 -0.3485
vn 0.4406 -0.6782 -0.5881
vn 0.2204 -0.6782 -0.7011
vn 0.0390 -0.8072 -0.5890
vn 0.5638 -0.7488 -0.3485
vn 0.8334 -0.2006 -0.5150
vn 0.6914 0.0000 0.7225
vn 0.8714 -0.4736 -0.1279
vn 0.9383 -0.2700 0.2162
vn 0.9854 0.0000 0.1702
vn 0.8735 0.4703 -0.1256
vn 0.8736 -0.4737 0.1116
vn 0.9822 0.0000 -0.1876
vn 0.8757 0.4703 0.1092
vn 0.9387 0.2704 0.2136
vn 0.8864 -0.3049 -0.3485
vn 0.7839 0.2038 -0.5865
vn 0.7177 0.0000 -0.6963
vn 0.7831 -0.2055 -0.5870
vn 0.8864 0.3049 -0.3485
vn 0.4504 0.7295 -0.5148
vn 0.8969 0.4057 -0.1759
vn 0.3233 0.1248 -0.9380
vn 0.6069 0.3331 -0.7216
vn 0.5087 0.5792 -0.6369
vn 0.0762 0.8954 -0.4386
vn 0.5424 0.1268 -0.8305
vn 0.1876 0.5773 -0.7947
vn 0.2913 0.8965 -0.3337
vn 0.4631 0.7696 -0.4396
vn 0.0891 0.2744 -0.9575
vn -0.2980 0.6283 -0.7187
vn -0.3684 0.4194 -0.8297
vn -0.1886 0.2885 -0.9387
vn -0.0711 0.7676 -0.6369
vn -0.4918 0.8542 -0.1686
vn -0.1062 0.9794 -0.1719
vn -0.0180 0.3452 -0.9384
vn -0.1285 0.6824 -0.7196
vn -0.3936 0.6628 -0.6369
vn -0.8328 0.3432 -0.4343
vn 0.0482 0.5552 -0.8303
vn -0.4911 0.3568 -0.7947
vn -0.7650 0.5558 -0.3255
vn -0.5854 0.6836 -0.4359
vn -0.2334 0.1696 -0.9575
vn -0.6934 -0.0920 -0.7147
vn -0.5123 -0.2248 -0.8289
vn -0.3302 -0.0914 -0.9395
vn -0.7520 0.1696 -0.6369
vn -0.9646 -0.2095 -0.1600
vn -0.9646 0.2081 -0.1621
vn -0.3310 0.0910 -0.9392
vn -0.6928 0.0916 -0.7153
vn -0.7520 -0.1696 -0.6369
vn -0.7261 -0.3438 -0.5955
vn -0.5125 0.2226 -0.8293
vn -0.4911 -0.3568 -0.7947
vn -0.5987 -0.4350 -0.6726
vn -0.5513 -0.5843 -0.5955
vn -0.2334 -0.1696 -0.9575
vn -0.1270 -0.6872 -0.7153
vn 0.0534 -0.5562 -0.8293
vn -0.0157 -0.3429 -0.9392
vn -0.3936 -0.6628 -0.6369
vn -0.1002 -0.9817 -0.1621
vn 0.6630 0.7276 -0.1759
vn 0.8751 -0.2043 -0.4386
vn 0.8751 0.2026 -0.4396
vn 0.7081 0.3049 -0.6369
vn 0.2186 0.2689 -0.9380
vn 0.9427 0.0000 -0.3337
vn 0.6071 -0.0000 -0.7947
vn 0.2882 0.4766 -0.8305
vn 0.5043 0.4743 -0.7216
vn 0.7081 -0.3049 -0.6369
vn 0.2161 -0.2685 -0.9387
vn 0.2851 -0.4800 -0.8297
vn 0.5054 -0.4776 -0.7187
vn 0.2885 0.0000 -0.9575
vn -0.3550 0.0000 -0.9349
vn -0.4973 -0.8527 -0.1600
vn -0.1890 -0.2858 -0.9395
vn -0.3017 -0.6310 -0.7147
vn -0.0711 -0.7676 -0.6369
vn 0.4693 -0.7680 -0.4359
vn -0.3721 -0.4178 -0.8289
vn 0.1876 -0.5773 -0.7947
vn 0.2922 -0.8993 -0.3255
vn 0.0691 -0.8981 -0.4343
vn 0.0891 -0.2743 -0.9575
vn 0.6093 -0.3331 -0.7196
vn 0.5429 -0.1257 -0.8303
vn 0.3227 -0.1238 -0.9384
vn 0.5087 -0.5792 -0.6369
vn 0.8986 -0.4037 -0.1719
s off
f 1//1 16//1 15//1
f 2//2 18//2 24//2
f 1//3 15//3 30//3
f 1//4 30//4 36//4
f 1//5 36//5 25//5
f 2//6 24//6 45//6
f 3//7 21//7 51//7
f 4//8 33//8 57//8
f 5//9 39//9 63//9
f 6//10 42//10 69//10
f 2//11 45//11 52//11
f 3//12 51//12 58//12
f 4//13 57//13 64//13
f 5//14 63//14 70//14
f 6//15 69//15 46//15
f 7//16 75//16 90//16
f 8//17 78//17 96//17
f 9//18 81//18 99//18
f 10//19 84//19 102//19
f 11//20 87//20 91//20
f 93//21 100//21 12//21
f 92//22 103//22 93//22
f 91//23 104//23 92//23
f 93//24 103//24 100//24
f 103//25 101//25 100//25
f 92//26 104//26 103//26
f 104//27 105//27 103//27
f 103//28 105//28 101//28
f 105//29 102//29 101//29
f 91//30 87//30 104//30
f 87//31 86//31 104//31
f 104//32 86//32 105//32
f 86//33 85//33 105//33
f 105//34 85//34 102//34
f 85//35 10//35 102//35
f 100//36 97//36 12//36
f 101//37 106//37 100//37
f 102//38 107//38 101//38
f 100//39 106//39 97//39
f 106//40 98//40 97//40
f 101//41 107//41 106//41
f 107//42 108//42 106//42
f 106//43 108//43 98//43
f 108//44 99//44 98//44
f 102//45 84//45 107//45
f 84//46 83//46 107//46
f 107//47 83//47 108//47
f 83//48 82//48 108//48
f 108//49 82//49 99//49
f 82//50 9//50 99//50
f 97//51 94//51 12//51
f 98//52 109//52 97//52
f 99//53 110//53 98//53
f 97//54 109//54 94//54
f 109//55 95//55 94//55
f 98//56 110//56 109//56
f 110//57 111//57 109//57
f 109//58 111//58 95//58
f 111//59 96//59 95//59
f 99//60 81//60 110//60
f 81//61 80//61 110//61
f 110//62 80//62 111//62
f 80//63 79//63 111//63
f 111//64 79//64 96//64
f 79//65 8//65 96//65
f 94//66 88//66 12//66
f 95//67 112//67 94//67
f 96//68 113//68 95//68
f 94//69 112//69 88//69
f 112//70 89//70 88//70
f 95//71 113//71 112//71
f 113//72 114//72 112//72
f 112//73 114//73 89//73
f 114//74 90//74 89//74
f 96//75 78//75 113//75
f 78//76 77//76 113//76
f 113//77 77//77 114//77
f 77//78 76//78 114//78
f 114//79 76//79 90//79
f 76//80 7//80 90//80
f 88//81 93//81 12//81
f 89//82 115//82 88//82
f 90//83 116//83 89//83
f 88//84 115//84 93//84
f 115//85 92//85 93//85
f 89//86 116//86 115//86
f 116//87 117//87 115//87
f 115//88 117//88 92//88
f 117//89 91//89 92//89
f 90//90 75//90 116//90
f 75//91 74//91 116//91
f 116//92 74//92 117//92
f 74//93 73//93 117//93
f 117//94 73//94 91//94
f 73//95 11//95 91//95
f 48//96 87//96 11//96
f 47//97 118//97 48//97
f 46//98 119//98 47//98
f 48//99 118//99 87//99
f 118//100 86//100 87//100
f 47//101 119//101 118//101
f 119//102 120//102 118//102
f 118//103 120//103 86//103
f 120//104 85//104 86//104
f 46//105 69//105 119//105
f 69//106 68//106 119//106
f 119//107 68//107 120//107
f 68//108 67//108 120//108
f 120//109 67//109 85//109
f 67//110 10//110 85//110
f 72//111 84//111 10//111
f 71//112 121//112 72//112
f 70//113 122//113 71//113
f 72//114 121//114 84//114
f 121//115 83//115 84//115
f 71//116 122//116 121//116
f 122//117 123//117 121//117
f 121//118 123//118 83//118
f 123//119 82//119 83//119
f 70//120 63//120 122//120
f 63//121 62//121 122//121
f 122//122 62//122 123//122
f 62//123 61//123 123//123
f 123//124 61//124 82//124
f 61//125 9//125 82//125
f 66//126 81//126 9//126
f 65//127 124//127 66//127
f 64//128 125//128 65//128
f 66//129 124//129 81//129
f 124//130 80//130 81//130
f 65//131 125//131 124//131
f 125//132 126//132 124//132
f 124//133 126//133 80//133
f 126//134 79//134 80//134
f 64//135 57//135 125//135
f 57//136 56//136 125//136
f 125//137 56//137 126//137
f 56//138 55//138 126//138
f 126//139 55//139 79//139
f 55//140 8//140 79//140
f 60//141 78//141 8//141
f 59//142 127//142 60//142
f 58//143 128//143 59//143
f 60//144 127//144 78//144
f 127//145 77//145 78//145
f 59//146 128//146 127//146
f 128//147 129//147 127//147
f 127//148 129//148 77//148
f 129//149 76//149 77//149
f 58//150 51//150 128//150
f 51//151 50//151 128//151
f 128//152 50//152 129//152
f 50//153 49//153 129//153
f 129//154 49//154 76//154
f 49//155 7//155 76//155
f 54//156 75//156 7//156
f 53//157 130//157 54//157
f 52//158 131//158 53//158
f 54//159 130//159 75//159
f 130//160 74//160 75//160
f 53//161 131//161 130//161
f 131//162 132//162 130//162
f 130//163 132//163 74//163
f 132//164 73//164 74//164
f 52//165 45//165 131//165
f 45//166 44//166 131//166
f 131//167 44//167 132//167
f 44//168 43//168 132//168
f 132//169 43//169 73//169
f 43//170 11//170 73//170
f 67//171 72//171 10//171
f 68//172 133//172 67//172
f 69//173 134//173 68//173
f 67//174 133//174 72//174
f 133//175 71//175 72//175
f 68//176 134//176 133//176
f 134//177 135//177 133//177
f 133//178 135//178 71//178
f 135//179 70//179 71//179
f 69//180 42//180 134//180
f 42//181 41//181 134//181
f 134//182 41//182 135//182
f 41//183 40//183 135//183
f 135//184 40//184 70//184
f 40//185 5//185 70//185
f 61//186 66//186 9//186
f 62//187 136//187 61//187
f 63//188 137//188 62//188
f 61//189 136//189 66//189
f 136//190 65//190 66//190
f 62//191 137//191 136//191
f 137//192 138//192 136//192
f 136//193 138//193 65//193
f 138//194 64//194 65//194
f 63//195 39//195 137//195
f 39//196 38//196 137//196
f 137//197 38//197 138//197
f 38//198 37//198 138//198
f 138//199 37//199 64//199
f 37//200 4//200 64//200
f 55//201 60//201 8//201
f 56//202 139//202 55//202
f 57//203 140//203 56//203
f 55//204 139//204 60//204
f 139//205 59//205 60//205
f 56//206 140//206 139//206
f 140//207 141//207 139//207
f 139//208 141//208 59//208
f 141//209 58//209 59//209
f 57//210 33//210 140//210
f 33//211 32//211 140//211
f 140//212 32//212 141//212
f 32//213 31//213 141//213
f 141//214 31//214 58//214
f 31//215 3//215 58//215
f 49//216 54//216 7//216
f 50//217 142//217 49//217
f 51//218 143//218 50//218
f 49//219 142//219 54//219
f 142//220 53//220 54//220
f 50//221 143//221 142//221
f 143//222 144//222 142//222
f 142//223 144//223 53//223
f 144//224 52//224 53//224
f 51//225 21//225 143//225
f 21//226 20//226 143//226
f 143//227 20//227 144//227
f 20//228 19//228 144//228
f 144//229 19//229 52//229
f 19//230 2//230 52//230
f 43//231 48//231 11//231
f 44//232 145//232 43//232
f 45//233 146//233 44//233
f 43//234 145//234 48//234
f 145//235 47//235 48//235
f 44//236 146//236 145//236
f 146//237 147//237 145//237
f 145//238 147//238 47//238
f 147//239 46//239 47//239
f 45//240 24//240 146//240
f 24//241 23//241 146//241
f 146//242 23//242 147//242
f 23//243 22//243 147//243
f 147//244 22//244 46//244
f 22//245 6//245 46//245
f 27//246 42//246 6//246
f 26//247 148//247 27//247
f 25//248 149//248 26//248
f 27//249 148//249 42//249
f 148//250 41//250 42//250
f 26//251 149//251 148//251
f 149//252 150//252 148//252
f 148//253 150//253 41//253
f 150//254 40//254 41//254
f 25//255 36//255 149//255
f 36//256 35//256 149//256
f 149//257 35//257 150//257
f 35//258 34//258 150//258
f 150//259 34//259 40//259
f 34//260 5//260 40//260
f 34//261 39//261 5//261
f 35//262 151//262 34//262
f 36//263 152//263 35//263
f 34//264 151//264 39//264
f 151//265 38//265 39//265
f 35//266 152//266 151//266
f 152//267 153//267 151//267
f 151//268 153//268 38//268
f 153//269 37//269 38//269
f 36//270 30//270 152//270
f 30//271 29//271 152//271
f 152//272 29//272 153//272
f 29//273 28//273 153//273
f 153//274 28//274 37//274
f 28//275 4//275 37//275
f 28//276 33//276 4//276
f 29//277 154//277 28//277
f 30//278 155//278 29//278
f 28//279 154//279 33//279
f 154//280 32//280 33//280
f 29//281 155//281 154//281
f 155//282 156//282 154//282
f 154//283 156//283 32//283
f 156//284 31//284 32//284
f 30//285 15//285 155//285
f 15//286 14//286 155//286
f 155//287 14//287 156//287
f 14//288 13//288 156//288
f 156//289 13//289 31//289
f 13//290 3//290 31//290
f 22//291 27//291 6//291
f 23//292 157//292 22//292
f 24//293 158//293 23//293
f 22//294 157//294 27//294
f 157//295 26//295 27//295
f 23//296 158//296 157//296
f 158//297 159//297 157//297
f 157//298 159//298 26//298
f 159//299 25//299 26//299
f 24//300 18//300 158//300
f 18//301 17//301 158//301
f 158//302 17//302 159//302
f 17//303 16//303 159//303
f 159//304 16//304 25//304
f 16//305 1//305 25//305
f 13//306 21//306 3//306
f 14//307 160//307 13//307
f 15//308 161//308 14//308
f 13//309 160//309 21//309
f 160//310 20//310 21//310
f 14//311 161//311 160//311
f 161//312 162//312 160//312
f 160//313 162//313 20//313
f 162//314 19//314 20//314
f 15//315 16//315 161//315
f 16//316 17//316 161//316
f 161//317 17//317 162//317
f 17//318 18//318 162//318
f 162//319 18//319 19//319
f 18//320 2//320 19//320
