# Blender v2.80 (sub 75) OBJ File: ''
# www.blender.org
v -0.000474 -0.000344 0.471418
v 0.381750 -0.278043 0.763408
v -0.146467 -0.449674 0.763408
v -0.472927 -0.000344 0.763410
v -0.146467 0.448986 0.763408
v 0.381750 0.277354 0.763408
v 0.145520 -0.449674 1.235869
v -0.382698 -0.278043 1.235868
v -0.382698 0.277354 1.235868
v 0.145520 0.448986 1.235869
v 0.471980 -0.000344 1.235866
v -0.000474 -0.000344 1.527858
v -0.116411 -0.358282 0.671240
v -0.086286 -0.264452 0.550305
v -0.038803 -0.119426 0.516025
v 0.101590 -0.073809 0.516025
v 0.224190 -0.163570 0.550306
v 0.304773 -0.221428 0.671241
v 0.265970 -0.340856 0.748849
v 0.138379 -0.427680 0.721933
v -0.014820 -0.432092 0.748849
v 0.406365 0.147619 0.748850
v 0.448856 -0.000344 0.721934
v 0.406365 -0.147619 0.748850
v 0.101590 0.073809 0.516025
v 0.224190 0.162882 0.550306
v 0.304773 0.221428 0.671241
v -0.376721 0.000000 0.671243
v -0.278175 -0.000344 0.550307
v -0.125573 0.000000 0.516026
v -0.241986 -0.358282 0.748849
v -0.344095 -0.249998 0.737132
v -0.415525 -0.119427 0.748851
v -0.116411 0.358282 0.671240
v -0.086286 0.263763 0.550305
v -0.038803 0.119426 0.516025
v -0.415525 0.119427 0.748851
v -0.363989 0.263764 0.721934
v -0.241986 0.358282 0.748849
v -0.014820 0.432092 0.748849
v 0.138379 0.426992 0.721933
v 0.265970 0.340856 0.748849
v 0.478313 -0.073809 1.125575
v 0.501894 -0.163571 0.999638
v 0.430349 -0.221429 0.874425
v 0.430349 0.221429 0.874425
v 0.501894 0.162883 0.999638
v 0.478313 0.073809 1.125575
v 0.077608 -0.477711 1.125576
v -0.000474 -0.528564 0.999638
v -0.077608 -0.477711 0.874424
v 0.343579 -0.340858 0.874424
v 0.310006 -0.427683 0.999638
v 0.218003 -0.432094 1.125576
v -0.430349 -0.221429 1.125575
v -0.502841 -0.163571 0.999638
v -0.478313 -0.073809 0.874425
v -0.218003 -0.432094 0.874424
v -0.310954 -0.427683 0.999638
v -0.343579 -0.340858 1.125576
v -0.343579 0.340858 1.125576
v -0.310954 0.426995 0.999638
v -0.218003 0.432094 0.874424
v -0.478313 0.073809 0.874425
v -0.502841 0.162883 0.999638
v -0.430349 0.221429 1.125575
v 0.218003 0.432094 1.125576
v 0.310006 0.426995 0.999638
v 0.343579 0.340858 0.874424
v -0.077608 0.477711 0.874424
v -0.000474 0.527876 0.999638
v 0.077608 0.477711 1.125576
v 0.415525 -0.119427 1.251149
v 0.363042 -0.264453 1.277342
v 0.241986 -0.358282 1.251151
v 0.014820 -0.432092 1.251151
v -0.139326 -0.427680 1.277343
v -0.265970 -0.340856 1.251151
v -0.406365 -0.147619 1.251150
v -0.449803 -0.000344 1.277342
v -0.406365 0.147619 1.251150
v -0.265970 0.340856 1.251151
v -0.139326 0.426992 1.277343
v 0.014820 0.432092 1.251151
v 0.241986 0.358282 1.251151
v 0.363042 0.263764 1.277342
v 0.415525 0.119427 1.251149
v 0.038803 -0.119426 1.483975
v 0.085339 -0.264452 1.448971
v 0.116411 -0.358282 1.328760
v 0.376721 0.000000 1.328757
v 0.277227 -0.000344 1.448969
v 0.125573 0.000000 1.483974
v -0.101590 -0.073809 1.483975
v -0.225138 -0.163570 1.448971
v -0.304773 -0.221428 1.328759
v -0.101590 0.073809 1.483975
v -0.225138 0.162882 1.448971
v -0.304773 0.221428 1.328759
v 0.038803 0.119426 1.483975
v 0.085339 0.263763 1.448971
v 0.116411 0.358282 1.328760
v 0.180900 0.131431 1.447215
v 0.319097 0.131432 1.361805
v 0.223605 0.262864 1.361806
v -0.069099 0.212660 1.447215
v -0.026395 0.344092 1.361806
v -0.180902 0.293889 1.361806
v -0.223605 0.000000 1.447215
v -0.335408 0.081229 1.361805
v -0.335408 -0.081229 1.361805
v -0.069099 -0.212660 1.447215
v -0.180902 -0.293889 1.361806
v -0.026395 -0.344092 1.361806
v 0.180900 -0.131431 1.447215
v 0.223605 -0.262864 1.361806
v 0.319097 -0.131432 1.361805
v 0.430902 0.212661 1.138198
v 0.404510 0.293891 1.000000
v 0.335410 0.344095 1.138199
v -0.069099 0.475528 1.138198
v -0.154508 0.475528 1.000000
v -0.223608 0.425324 1.138199
v -0.473607 0.081229 1.138198
v -0.500000 -0.000000 1.000000
v -0.473606 -0.081229 1.138198
v -0.223608 -0.425324 1.138198
v -0.154509 -0.475528 1.000000
v -0.069100 -0.475528 1.138198
v 0.335410 -0.344095 1.138198
v 0.404509 -0.293891 0.999999
v 0.430902 -0.212662 1.138197
v 0.154509 0.475528 1.000000
v 0.223608 0.425324 0.861801
v 0.069100 0.475527 0.861801
v -0.404509 0.293892 1.000000
v -0.335409 0.344095 0.861801
v -0.430902 0.212662 0.861802
v -0.404509 -0.293892 1.000000
v -0.430902 -0.212662 0.861802
v -0.335410 -0.344095 0.861801
v 0.154509 -0.475528 1.000000
v 0.069100 -0.475527 0.861801
v 0.223608 -0.425324 0.861801
v 0.500000 0.000000 1.000000
v 0.473607 -0.081229 0.861802
v 0.473607 0.081229 0.861802
v 0.180902 0.293890 0.638194
v 0.069098 0.212661 0.552785
v 0.026395 0.344093 0.638195
v -0.223605 0.262864 0.638194
v -0.180901 0.131431 0.552786
v -0.319097 0.131431 0.638195
v -0.319097 -0.131432 0.638195
v -0.180901 -0.131432 0.552786
v -0.223605 -0.262864 0.638195
v 0.335409 0.081228 0.638195
v 0.335409 -0.081229 0.638195
v 0.223605 -0.000000 0.552786
v 0.026395 -0.344093 0.638194
v 0.069099 -0.212660 0.552785
v 0.180902 -0.293890 0.638195
vn 0.1244 -0.3829 -0.9154
vn 0.6845 -0.2072 -0.6990
vn -0.3268 -0.2375 -0.9148
vn -0.3257 0.2367 -0.9154
vn 0.1238 0.3809 -0.9163
vn 0.9305 -0.2092 -0.3007
vn 0.0939 -0.9499 -0.2981
vn -0.8738 -0.3849 -0.2971
vn -0.6327 0.7143 -0.2990
vn 0.4874 0.8196 -0.3012
vn 0.8078 -0.5869 -0.0543
vn -0.3087 -0.9499 -0.0485
vn -0.9988 0.0000 -0.0485
vn -0.3086 0.9497 -0.0543
vn 0.8077 0.5868 -0.0580
vn 0.4313 -0.5719 0.6978
vn -0.4075 -0.5870 0.6996
vn -0.6845 0.2072 0.6990
vn -0.0112 0.7172 0.6968
vn 0.6796 0.2315 0.6961
vn 0.3193 0.2320 0.9188
vn 0.2218 0.1749 0.9593
vn 0.7583 0.1745 0.6281
vn 0.2334 0.1696 0.9575
vn 0.2349 0.1569 0.9593
vn 0.4889 0.3679 0.7910
vn 0.4911 0.3568 0.7947
vn 0.5009 0.3513 0.7910
vn 0.4003 0.6673 0.6281
vn 0.7520 0.1696 0.6369
vn 0.7529 0.1578 0.6390
vn 0.4834 0.3512 0.8018
vn 0.3827 0.6673 0.6390
vn 0.3936 0.6628 0.6369
vn 0.4302 0.5748 0.6961
vn -0.1224 0.3766 0.9183
vn -0.0984 0.2644 0.9594
vn 0.0681 0.7756 0.6275
vn -0.0891 0.2743 0.9575
vn -0.0759 0.2717 0.9594
vn -0.2005 0.5788 0.7904
vn -0.1876 0.5773 0.7947
vn -0.1781 0.5861 0.7905
vn -0.5115 0.5890 0.6257
vn 0.0711 0.7676 0.6369
vn 0.0833 0.7646 0.6391
vn -0.1842 0.5670 0.8028
vn -0.5184 0.5677 0.6395
vn -0.5087 0.5792 0.6369
vn -0.4106 0.5869 0.6978
vn -0.3981 0.0000 0.9173
vn -0.2812 -0.0130 0.9596
vn -0.7191 0.3044 0.6246
vn -0.2885 0.0000 0.9575
vn -0.2813 0.0129 0.9595
vn -0.6135 -0.0143 0.7895
vn -0.6071 0.0000 0.7947
vn -0.6135 0.0142 0.7896
vn -0.7201 -0.3043 0.6235
vn -0.7081 0.3049 0.6369
vn -0.6995 0.3186 0.6397
vn -0.5940 0.0000 0.8045
vn -0.6987 -0.3199 0.6399
vn -0.7081 -0.3049 0.6369
vn -0.6842 -0.2061 0.6996
vn -0.1230 -0.3786 0.9173
vn -0.0746 -0.2715 0.9595
vn -0.5120 -0.5908 0.6235
vn -0.0891 -0.2743 0.9575
vn -0.0993 -0.2635 0.9596
vn -0.1761 -0.5879 0.7896
vn -0.1876 -0.5773 0.7947
vn -0.2032 -0.5791 0.7895
vn 0.0672 -0.7780 0.6246
vn -0.5087 -0.5792 0.6369
vn -0.5201 -0.5656 0.6399
vn -0.1836 -0.5649 0.8045
vn 0.0868 -0.7637 0.6397
vn 0.0711 -0.7676 0.6369
vn -0.0145 -0.7150 0.6990
vn 0.3203 -0.2327 0.9183
vn 0.2350 -0.1562 0.9594
vn 0.4021 -0.6684 0.6257
vn 0.2334 -0.1696 0.9575
vn 0.2210 -0.1753 0.9594
vn 0.5023 -0.3504 0.7905
vn 0.4911 -0.3568 0.7947
vn 0.4885 -0.3696 0.7904
vn 0.7587 -0.1749 0.6275
vn 0.3936 -0.6628 0.6369
vn 0.3798 -0.6685 0.6395
vn 0.4823 -0.3504 0.8028
vn 0.7529 -0.1571 0.6391
vn 0.7520 -0.1696 0.6369
vn 0.6786 -0.2323 0.6968
vn 0.8766 0.3746 0.3022
vn 0.8926 0.2721 0.3596
vn 0.7897 0.5875 -0.1765
vn 0.8963 0.2743 0.3485
vn 0.9014 0.2657 0.3420
vn 0.7877 0.5850 0.1934
vn 0.7947 0.5773 0.1876
vn 0.7964 0.5786 0.1759
vn 0.5312 0.7751 0.3420
vn 0.7972 0.5792 -0.1702
vn 0.8028 0.5695 -0.1765
vn 0.7997 0.5683 0.1934
vn 0.5346 0.7648 0.3596
vn 0.5379 0.7676 0.3485
vn 0.6271 0.7179 0.3022
vn -0.0875 0.9495 0.3012
vn 0.0172 0.9325 0.3608
vn -0.3170 0.9316 -0.1779
vn 0.0160 0.9372 0.3485
vn 0.0269 0.9396 0.3413
vn -0.3152 0.9288 0.1948
vn -0.3035 0.9342 0.1876
vn -0.3044 0.9367 0.1731
vn -0.5760 0.7434 0.3400
vn -0.3045 0.9372 -0.1702
vn -0.2912 0.9400 -0.1779
vn -0.2910 0.9367 0.1948
vn -0.5616 0.7435 0.3630
vn -0.5638 0.7488 0.3485
vn -0.4859 0.8208 0.3003
vn -0.9320 0.2052 0.2986
vn -0.8799 0.3043 0.3650
vn -0.9835 -0.0176 -0.1802
vn -0.8864 0.3049 0.3485
vn -0.8849 0.3197 0.3388
vn -0.9803 -0.0167 0.1970
vn -0.9822 -0.0000 0.1876
vn -0.9857 0.0000 0.1686
vn -0.8847 -0.3210 0.3380
vn -0.9854 0.0000 -0.1702
vn -0.9835 0.0175 -0.1801
vn -0.9803 0.0166 0.1970
vn -0.8793 -0.3043 0.3664
vn -0.8864 -0.3049 0.3485
vn -0.9325 -0.2041 0.2981
vn -0.4823 -0.8237 0.2981
vn -0.5611 -0.7422 0.3664
vn -0.2873 -0.9408 -0.1801
vn -0.5638 -0.7488 0.3485
vn -0.5787 -0.7422 0.3380
vn -0.2871 -0.9374 0.1970
vn -0.3035 -0.9342 0.1876
vn -0.3046 -0.9374 0.1686
vn 0.0307 -0.9403 0.3388
vn -0.3045 -0.9372 -0.1702
vn -0.3206 -0.9299 -0.1802
vn -0.3188 -0.9271 0.1970
vn 0.0175 -0.9308 0.3650
vn 0.0160 -0.9372 0.3485
vn -0.0929 -0.9498 0.2986
vn 0.6305 -0.7157 0.3003
vn 0.5335 -0.7639 0.3630
vn 0.8040 -0.5674 -0.1779
vn 0.5379 -0.7676 0.3485
vn 0.5291 -0.7775 0.3400
vn 0.8009 -0.5662 0.1948
vn 0.7947 -0.5773 0.1876
vn 0.7968 -0.5789 0.1731
vn 0.9019 -0.2647 0.3413
vn 0.7972 -0.5792 -0.1702
vn 0.7880 -0.5894 -0.1779
vn 0.7860 -0.5868 0.1948
vn 0.8922 -0.2718 0.3608
vn 0.8963 -0.2744 0.3485
vn 0.8760 -0.3767 0.3012
vn 0.3085 0.9495 0.0573
vn 0.2936 0.9395 0.1765
vn 0.5619 0.7441 -0.3612
vn 0.3045 0.9372 0.1702
vn 0.3146 0.9327 0.1765
vn 0.2919 0.9365 -0.1943
vn 0.3035 0.9342 -0.1876
vn 0.3143 0.9292 -0.1943
vn -0.0173 0.9318 -0.3626
vn 0.5638 0.7488 -0.3485
vn 0.5743 0.7442 -0.3411
vn 0.3043 0.9365 -0.1743
vn -0.0285 0.9399 -0.3403
vn -0.0160 0.9372 -0.3485
vn 0.0886 0.9496 -0.3007
vn -0.8079 0.5870 0.0514
vn -0.8047 0.5661 0.1787
vn -0.5331 0.7635 -0.3646
vn -0.7972 0.5792 0.1702
vn -0.7871 0.5903 0.1787
vn -0.8024 0.5635 -0.1965
vn -0.7947 0.5774 -0.1876
vn -0.7839 0.5889 -0.1965
vn -0.8901 0.2706 -0.3668
vn -0.5379 0.7676 -0.3485
vn -0.5282 0.7784 -0.3391
vn -0.7973 0.5793 -0.1698
vn -0.9046 0.2600 -0.3378
vn -0.8963 0.2744 -0.3485
vn -0.8744 0.3828 -0.2981
vn -0.8081 -0.5871 0.0478
vn -0.7854 -0.5922 0.1801
vn -0.8896 -0.2703 -0.3681
vn -0.7972 -0.5792 0.1702
vn -0.8059 -0.5640 0.1801
vn -0.7822 -0.5908 -0.1979
vn -0.7947 -0.5774 -0.1876
vn -0.8036 -0.5614 -0.1979
vn -0.5320 -0.7626 -0.3681
vn -0.8963 -0.2744 -0.3485
vn -0.8039 -0.4003 -0.4399
vn -0.7544 -0.5481 -0.3611
vn -0.6291 -0.6409 -0.4399
vn -0.5379 -0.7676 -0.3485
vn -0.6361 -0.7121 -0.2971
vn 0.3086 -0.9498 0.0514
vn 0.3182 -0.9310 0.1787
vn -0.0177 -0.9301 -0.3668
vn 0.3045 -0.9372 0.1702
vn 0.2897 -0.9403 0.1787
vn 0.3179 -0.9276 -0.1965
vn 0.3035 -0.9342 -0.1876
vn 0.2879 -0.9373 -0.1965
vn 0.5614 -0.7429 -0.3646
vn -0.0160 -0.9372 -0.3485
vn -0.0323 -0.9407 -0.3378
vn 0.3045 -0.9372 -0.1698
vn 0.5771 -0.7429 -0.3391
vn 0.5638 -0.7488 -0.3485
vn 0.4838 -0.8225 -0.2990
vn 0.9984 0.0000 0.0573
vn 0.9842 0.0110 0.1765
vn 0.8808 -0.3044 -0.3626
vn 0.9854 0.0000 0.1702
vn 0.9842 -0.0111 0.1765
vn 0.9809 0.0118 -0.1943
vn 0.9822 0.0000 -0.1876
vn 0.9809 -0.0118 -0.1943
vn 0.8814 0.3045 -0.3612
vn 0.8864 -0.3049 -0.3485
vn 0.8851 -0.3175 -0.3403
vn 0.9847 0.0000 -0.1743
vn 0.8852 0.3163 -0.3411
vn 0.8864 0.3049 -0.3485
vn 0.9301 0.2103 -0.3012
vn 0.4097 0.5869 -0.6983
vn 0.5114 0.5889 -0.6259
vn 0.0716 0.2709 -0.9599
vn 0.5087 0.5792 -0.6369
vn 0.5183 0.5679 -0.6395
vn 0.1761 0.5879 -0.7896
vn 0.1876 0.5773 -0.7947
vn 0.1835 0.5648 -0.8046
vn -0.0870 0.7637 -0.6397
vn 0.0891 0.2744 -0.9575
vn 0.1013 0.2613 -0.9599
vn 0.2030 0.5791 -0.7896
vn -0.0673 0.7779 -0.6248
vn -0.0711 0.7676 -0.6369
vn 0.0145 0.7150 -0.6990
vn -0.4327 0.5680 -0.7001
vn -0.4036 0.6694 -0.6237
vn -0.2357 0.1505 -0.9601
vn -0.3936 0.6628 -0.6369
vn -0.3774 0.6694 -0.6399
vn -0.5070 0.3477 -0.7887
vn -0.4911 0.3568 -0.7947
vn -0.4787 0.3478 -0.8062
vn -0.7534 0.1496 -0.6403
vn -0.2334 0.1696 -0.9575
vn -0.2161 0.1776 -0.9601
vn -0.4874 0.3747 -0.7887
vn -0.7626 0.1780 -0.6219
vn -0.7520 0.1696 -0.6369
vn -0.6725 0.2371 -0.7011
vn -0.6715 -0.2379 -0.7018
vn -0.7630 -0.1783 -0.6213
vn -0.2153 -0.1779 -0.9602
vn -0.7520 -0.1696 -0.6369
vn -0.7261 -0.3438 -0.5955
vn -0.4871 -0.3763 -0.7881
vn -0.4911 -0.3568 -0.7947
vn -0.5987 -0.4350 -0.6726
vn -0.5513 -0.5843 -0.5955
vn -0.2334 -0.1696 -0.9575
vn -0.2357 -0.1498 -0.9602
vn -0.5084 -0.3469 -0.7881
vn -0.4054 -0.6706 -0.6213
vn -0.3936 -0.6628 -0.6369
vn -0.4337 -0.5651 -0.7018
vn 0.6848 0.2083 -0.6983
vn 0.7002 0.3174 -0.6395
vn 0.6994 -0.3187 -0.6397
vn 0.7081 0.3049 -0.6369
vn 0.7181 0.3044 -0.6259
vn 0.5939 -0.0000 -0.8046
vn 0.6071 -0.0000 -0.7947
vn 0.6135 -0.0142 -0.7896
vn 0.2798 -0.0156 -0.9599
vn 0.7081 -0.3049 -0.6369
vn 0.7191 -0.3044 -0.6248
vn 0.6135 0.0142 -0.7896
vn 0.2798 0.0156 -0.9599
vn 0.2885 0.0000 -0.9575
vn 0.4005 0.0000 -0.9163
vn 0.0177 -0.7128 -0.7011
vn -0.0664 -0.7803 -0.6219
vn 0.1021 -0.2604 -0.9601
vn -0.0711 -0.7676 -0.6369
vn -0.0905 -0.7628 -0.6403
vn 0.2057 -0.5794 -0.7887
vn 0.1876 -0.5773 -0.7947
vn 0.1828 -0.5627 -0.8062
vn 0.5200 -0.5658 -0.6399
vn 0.0891 -0.2743 -0.9575
vn 0.0703 -0.2706 -0.9601
vn 0.1740 -0.5897 -0.7887
vn 0.5119 -0.5907 -0.6237
vn 0.5087 -0.5792 -0.6369
vn 0.4065 -0.5870 -0.7001
s off
f 1//1 16//1 15//1
f 2//2 18//2 24//2
f 1//3 15//3 30//3
f 1//4 30//4 36//4
f 1//5 36//5 25//5
f 2//6 24//6 45//6
f 3//7 21//7 51//7
f 4//8 33//8 57//8
f 5//9 39//9 63//9
f 6//10 42//10 69//10
f 2//11 45//11 52//11
f 3//12 51//12 58//12
f 4//13 57//13 64//13
f 5//14 63//14 70//14
f 6//15 69//15 46//15
f 7//16 75//16 90//16
f 8//17 78//17 96//17
f 9//18 81//18 99//18
f 10//19 84//19 102//19
f 11//20 87//20 91//20
f 93//21 100//21 12//21
f 92//22 103//22 93//22
f 91//23 104//23 92//23
f 93//24 103//24 100//24
f 103//25 101//25 100//25
f 92//26 104//26 103//26
f 104//27 105//27 103//27
f 103//28 105//28 101//28
f 105//29 102//29 101//29
f 91//30 87//30 104//30
f 87//31 86//31 104//31
f 104//32 86//32 105//32
f 86//33 85//33 105//33
f 105//34 85//34 102//34
f 85//35 10//35 102//35
f 100//36 97//36 12//36
f 101//37 106//37 100//37
f 102//38 107//38 101//38
f 100//39 106//39 97//39
f 106//40 98//40 97//40
f 101//41 107//41 106//41
f 107//42 108//42 106//42
f 106//43 108//43 98//43
f 108//44 99//44 98//44
f 102//45 84//45 107//45
f 84//46 83//46 107//46
f 107//47 83//47 108//47
f 83//48 82//48 108//48
f 108//49 82//49 99//49
f 82//50 9//50 99//50
f 97//51 94//51 12//51
f 98//52 109//52 97//52
f 99//53 110//53 98//53
f 97//54 109//54 94//54
f 109//55 95//55 94//55
f 98//56 110//56 109//56
f 110//57 111//57 109//57
f 109//58 111//58 95//58
f 111//59 96//59 95//59
f 99//60 81//60 110//60
f 81//61 80//61 110//61
f 110//62 80//62 111//62
f 80//63 79//63 111//63
f 111//64 79//64 96//64
f 79//65 8//65 96//65
f 94//66 88//66 12//66
f 95//67 112//67 94//67
f 96//68 113//68 95//68
f 94//69 112//69 88//69
f 112//70 89//70 88//70
f 95//71 113//71 112//71
f 113//72 114//72 112//72
f 112//73 114//73 89//73
f 114//74 90//74 89//74
f 96//75 78//75 113//75
f 78//76 77//76 113//76
f 113//77 77//77 114//77
f 77//78 76//78 114//78
f 114//79 76//79 90//79
f 76//80 7//80 90//80
f 88//81 93//81 12//81
f 89//82 115//82 88//82
f 90//83 116//83 89//83
f 88//84 115//84 93//84
f 115//85 92//85 93//85
f 89//86 116//86 115//86
f 116//87 117//87 115//87
f 115//88 117//88 92//88
f 117//89 91//89 92//89
f 90//90 75//90 116//90
f 75//91 74//91 116//91
f 116//92 74//92 117//92
f 74//93 73//93 117//93
f 117//94 73//94 91//94
f 73//95 11//95 91//95
f 48//96 87//96 11//96
f 47//97 118//97 48//97
f 46//98 119//98 47//98
f 48//99 118//99 87//99
f 118//100 86//100 87//100
f 47//101 119//101 118//101
f 119//102 120//102 118//102
f 118//103 120//103 86//103
f 120//104 85//104 86//104
f 46//105 69//105 119//105
f 69//106 68//106 119//106
f 119//107 68//107 120//107
f 68//108 67//108 120//108
f 120//109 67//109 85//109
f 67//110 10//110 85//110
f 72//111 84//111 10//111
f 71//112 121//112 72//112
f 70//113 122//113 71//113
f 72//114 121//114 84//114
f 121//115 83//115 84//115
f 71//116 122//116 121//116
f 122//117 123//117 121//117
f 121//118 123//118 83//118
f 123//119 82//119 83//119
f 70//120 63//120 122//120
f 63//121 62//121 122//121
f 122//122 62//122 123//122
f 62//123 61//123 123//123
f 123//124 61//124 82//124
f 61//125 9//125 82//125
f 66//126 81//126 9//126
f 65//127 124//127 66//127
f 64//128 125//128 65//128
f 66//129 124//129 81//129
f 124//130 80//130 81//130
f 65//131 125//131 124//131
f 125//132 126//132 124//132
f 124//133 126//133 80//133
f 126//134 79//134 80//134
f 64//135 57//135 125//135
f 57//136 56//136 125//136
f 125//137 56//137 126//137
f 56//138 55//138 126//138
f 126//139 55//139 79//139
f 55//140 8//140 79//140
f 60//141 78//141 8//141
f 59//142 127//142 60//142
f 58//143 128//143 59//143
f 60//144 127//144 78//144
f 127//145 77//145 78//145
f 59//146 128//146 127//146
f 128//147 129//147 127//147
f 127//148 129//148 77//148
f 129//149 76//149 77//149
f 58//150 51//150 128//150
f 51//151 50//151 128//151
f 128//152 50//152 129//152
f 50//153 49//153 129//153
f 129//154 49//154 76//154
f 49//155 7//155 76//155
f 54//156 75//156 7//156
f 53//157 130//157 54//157
f 52//158 131//158 53//158
f 54//159 130//159 75//159
f 130//160 74//160 75//160
f 53//161 131//161 130//161
f 131//162 132//162 130//162
f 130//163 132//163 74//163
f 132//164 73//164 74//164
f 52//165 45//165 131//165
f 45//166 44//166 131//166
f 131//167 44//167 132//167
f 44//168 43//168 132//168
f 132//169 43//169 73//169
f 43//170 11//170 73//170
f 67//171 72//171 10//171
f 68//172 133//172 67//172
f 69//173 134//173 68//173
f 67//174 133//174 72//174
f 133//175 71//175 72//175
f 68//176 134//176 133//176
f 134//177 135//177 133//177
f 133//178 135//178 71//178
f 135//179 70//179 71//179
f 69//180 42//180 134//180
f 42//181 41//181 134//181
f 134//182 41//182 135//182
f 41//183 40//183 135//183
f 135//184 40//184 70//184
f 40//185 5//185 70//185
f 61//186 66//186 9//186
f 62//187 136//187 61//187
f 63//188 137//188 62//188
f 61//189 136//189 66//189
f 136//190 65//190 66//190
f 62//191 137//191 136//191
f 137//192 138//192 136//192
f 136//193 138//193 65//193
f 138//194 64//194 65//194
f 63//195 39//195 137//195
f 39//196 38//196 137//196
f 137//197 38//197 138//197
f 38//198 37//198 138//198
f 138//199 37//199 64//199
f 37//200 4//200 64//200
f 55//201 60//201 8//201
f 56//202 139//202 55//202
f 57//203 140//203 56//203
f 55//204 139//204 60//204
f 139//205 59//205 60//205
f 56//206 140//206 139//206
f 140//207 141//207 139//207
f 139//208 141//208 59//208
f 141//209 58//209 59//209
f 57//210 33//210 140//210
f 33//211 32//211 140//211
f 140//212 32//212 141//212
f 32//213 31//213 141//213
f 141//214 31//214 58//214
f 31//215 3//215 58//215
f 49//216 54//216 7//216
f 50//217 142//217 49//217
f 51//218 143//218 50//218
f 49//219 142//219 54//219
f 142//220 53//220 54//220
f 50//221 143//221 142//221
f 143//222 144//222 142//222
f 142//223 144//223 53//223
f 144//224 52//224 53//224
f 51//225 21//225 143//225
f 21//226 20//226 143//226
f 143//227 20//227 144//227
f 20//228 19//228 144//228
f 144//229 19//229 52//229
f 19//230 2//230 52//230
f 43//231 48//231 11//231
f 44//232 145//232 43//232
f 45//233 146//233 44//233
f 43//234 145//234 48//234
f 145//235 47//235 48//235
f 44//236 146//236 145//236
f 146//237 147//237 145//237
f 145//238 147//238 47//238
f 147//239 46//239 47//239
f 45//240 24//240 146//240
f 24//241 23//241 146//241
f 146//242 23//242 147//242
f 23//243 22//243 147//243
f 147//244 22//244 46//244
f 22//245 6//245 46//245
f 27//246 42//246 6//246
f 26//247 148//247 27//247
f 25//248 149//248 26//248
f 27//249 148//249 42//249
f 148//250 41//250 42//250
f 26//251 149//251 148//251
f 149//252 150//252 148//252
f 148//253 150//253 41//253
f 150//254 40//254 41//254
f 25//255 36//255 149//255
f 36//256 35//256 149//256
f 149//257 35//257 150//257
f 35//258 34//258 150//258
f 150//259 34//259 40//259
f 34//260 5//260 40//260
f 34//261 39//261 5//261
f 35//262 151//262 34//262
f 36//263 152//263 35//263
f 34//264 151//264 39//264
f 151//265 38//265 39//265
f 35//266 152//266 151//266
f 152//267 153//267 151//267
f 151//268 153//268 38//268
f 153//269 37//269 38//269
f 36//270 30//270 152//270
f 30//271 29//271 152//271
f 152//272 29//272 153//272
f 29//273 28//273 153//273
f 153//274 28//274 37//274
f 28//275 4//275 37//275
f 28//276 33//276 4//276
f 29//277 154//277 28//277
f 30//278 155//278 29//278
f 28//279 154//279 33//279
f 154//280 32//280 33//280
f 29//281 155//281 154//281
f 155//282 156//282 154//282
f 154//283 156//283 32//283
f 156//284 31//284 32//284
f 30//285 15//285 155//285
f 15//286 14//286 155//286
f 155//287 14//287 156//287
f 14//288 13//288 156//288
f 156//289 13//289 31//289
f 13//290 3//290 31//290
f 22//291 27//291 6//291
f 23//292 157//292 22//292
f 24//293 158//293 23//293
f 22//294 157//294 27//294
f 157//295 26//295 27//295
f 23//296 158//296 157//296
f 158//297 159//297 157//297
f 157//298 159//298 26//298
f 159//299 25//299 26//299
f 24//300 18//300 158//300
f 18//301 17//301 158//301
f 158//302 17//302 159//302
f 17//303 16//303 159//303
f 159//304 16//304 25//304
f 16//305 1//305 25//305
f 13//306 21//306 3//306
f 14//307 160//307 13//307
f 15//308 161//308 14//308
f 13//309 160//309 21//309
f 160//310 20//310 21//310
f 14//311 161//311 160//311
f 161//312 162//312 160//312
f 160//313 162//313 20//313
f 162//314 19//314 20//314
f 15//315 16//315 161//315
f 16//316 17//316 161//316
f 161//317 17//317 162//317
f 17//318 18//318 162//318
f 162//319 18//319 19//319
f 18//320 2//320 19//320
